<svg width="674" height="105" viewBox="0 0 674 105" fill="none" xmlns="http://www.w3.org/2000/svg">
<path d="M0.96 40V1.225H18.835C23.0883 1.225 26.37 2.12333 28.68 3.92C30.99 5.71666 32.145 8.17333 32.145 11.29C32.145 13.6 31.4483 15.5617 30.055 17.175C28.6983 18.7883 26.8283 19.87 24.445 20.42V19.54C27.2317 20.0167 29.3767 21.08 30.88 22.73C32.42 24.3433 33.19 26.4517 33.19 29.055C33.19 32.5017 31.9617 35.1967 29.505 37.14C27.085 39.0467 23.73 40 19.44 40H0.96ZM9.155 33.62H18.395C20.5217 33.62 22.1533 33.2167 23.29 32.41C24.4267 31.6033 24.995 30.32 24.995 28.56C24.995 26.7633 24.4267 25.48 23.29 24.71C22.1533 23.9033 20.5217 23.5 18.395 23.5H9.155V33.62ZM9.155 17.175H17.295C19.5317 17.175 21.1817 16.7717 22.245 15.965C23.3083 15.1583 23.84 13.9483 23.84 12.335C23.84 10.7583 23.3083 9.56667 22.245 8.76C21.1817 7.95333 19.5317 7.55 17.295 7.55H9.155V17.175ZM52.3459 40.605C49.3759 40.605 46.7909 40.0183 44.5909 38.845C42.4276 37.635 40.7409 35.9483 39.5309 33.785C38.3576 31.6217 37.7709 29.0367 37.7709 26.03C37.7709 23.06 38.3576 20.4933 39.5309 18.33C40.7409 16.1667 42.4276 14.4983 44.5909 13.325C46.7909 12.1517 49.3759 11.565 52.3459 11.565C55.3159 11.565 57.9009 12.1517 60.1009 13.325C62.3009 14.4983 63.9876 16.1667 65.1609 18.33C66.3709 20.4933 66.9759 23.06 66.9759 26.03C66.9759 29.0367 66.3709 31.6217 65.1609 33.785C63.9876 35.9483 62.3009 37.635 60.1009 38.845C57.9009 40.0183 55.3159 40.605 52.3459 40.605ZM52.3459 34.335C54.2526 34.335 55.7559 33.6567 56.8559 32.3C57.9926 30.9433 58.5609 28.8533 58.5609 26.03C58.5609 23.2067 57.9926 21.135 56.8559 19.815C55.7559 18.495 54.2526 17.835 52.3459 17.835C50.4392 17.835 48.9176 18.495 47.7809 19.815C46.6809 21.135 46.1309 23.2067 46.1309 26.03C46.1309 28.8533 46.6809 30.9433 47.7809 32.3C48.9176 33.6567 50.4392 34.335 52.3459 34.335ZM72.2202 40.825L69.7452 34.335C70.9186 33.9683 71.9086 33.4733 72.7152 32.85C73.5219 32.2267 74.1636 31.42 74.6402 30.43C75.1536 29.44 75.5202 28.2117 75.7402 26.745C75.9602 25.2783 76.0702 23.5367 76.0702 21.52V12.115H99.4452V40H91.1952V18.44H83.5502V21.795C83.5502 25.6083 83.1469 28.835 82.3402 31.475C81.5336 34.115 80.3052 36.205 78.6552 37.745C77.0052 39.285 74.8602 40.3117 72.2202 40.825ZM120.129 40.605C117.159 40.605 114.574 40.0183 112.374 38.845C110.211 37.635 108.524 35.9483 107.314 33.785C106.141 31.6217 105.554 29.0367 105.554 26.03C105.554 23.06 106.141 20.4933 107.314 18.33C108.524 16.1667 110.211 14.4983 112.374 13.325C114.574 12.1517 117.159 11.565 120.129 11.565C123.099 11.565 125.684 12.1517 127.884 13.325C130.084 14.4983 131.771 16.1667 132.944 18.33C134.154 20.4933 134.759 23.06 134.759 26.03C134.759 29.0367 134.154 31.6217 132.944 33.785C131.771 35.9483 130.084 37.635 127.884 38.845C125.684 40.0183 123.099 40.605 120.129 40.605ZM120.129 34.335C122.036 34.335 123.539 33.6567 124.639 32.3C125.776 30.9433 126.344 28.8533 126.344 26.03C126.344 23.2067 125.776 21.135 124.639 19.815C123.539 18.495 122.036 17.835 120.129 17.835C118.222 17.835 116.701 18.495 115.564 19.815C114.464 21.135 113.914 23.2067 113.914 26.03C113.914 28.8533 114.464 30.9433 115.564 32.3C116.701 33.6567 118.222 34.335 120.129 34.335ZM138.616 47.15V33.785H141.916C142.906 32.135 143.621 30.2283 144.061 28.065C144.501 25.9017 144.721 23.1883 144.721 19.925V12.115H167.271V33.785H171.836V47.15H164.851V40H145.601V47.15H138.616ZM149.231 33.84H159.516V18.33H151.651V21.96C151.651 24.1233 151.431 26.2867 150.991 28.45C150.587 30.5767 150.001 32.3733 149.231 33.84ZM187.535 40.605C185.115 40.605 182.988 40.0183 181.155 38.845C179.321 37.6717 177.891 36.0033 176.865 33.84C175.838 31.6767 175.325 29.0733 175.325 26.03C175.325 23.0233 175.838 20.4383 176.865 18.275C177.891 16.1117 179.321 14.4617 181.155 13.325C182.988 12.1517 185.115 11.565 187.535 11.565C189.771 11.565 191.77 12.115 193.53 13.215C195.326 14.2783 196.5 15.7267 197.05 17.56H196.445L197.105 12.115H205.08C204.97 13.325 204.86 14.5533 204.75 15.8C204.676 17.01 204.64 18.2017 204.64 19.375V40H196.39L196.335 34.775H196.995C196.408 36.535 195.235 37.9467 193.475 39.01C191.715 40.0733 189.735 40.605 187.535 40.605ZM190.065 34.335C191.971 34.335 193.511 33.6567 194.685 32.3C195.858 30.9433 196.445 28.8533 196.445 26.03C196.445 23.2067 195.858 21.135 194.685 19.815C193.511 18.495 191.971 17.835 190.065 17.835C188.158 17.835 186.618 18.495 185.445 19.815C184.271 21.135 183.685 23.2067 183.685 26.03C183.685 28.8533 184.253 30.9433 185.39 32.3C186.563 33.6567 188.121 34.335 190.065 34.335ZM212.31 51.88V19.375C212.31 18.2017 212.273 17.01 212.2 15.8C212.127 14.5533 212.017 13.325 211.87 12.115H219.845L220.505 17.56H219.9C220.45 15.7267 221.605 14.2783 223.365 13.215C225.125 12.115 227.142 11.565 229.415 11.565C231.835 11.565 233.962 12.1517 235.795 13.325C237.628 14.4617 239.058 16.1117 240.085 18.275C241.148 20.4383 241.68 23.0233 241.68 26.03C241.68 29.0733 241.148 31.6767 240.085 33.84C239.058 36.0033 237.628 37.6717 235.795 38.845C233.962 40.0183 231.835 40.605 229.415 40.605C227.178 40.605 225.18 40.0733 223.42 39.01C221.697 37.9467 220.542 36.535 219.955 34.775H220.615V51.88H212.31ZM226.885 34.335C228.828 34.335 230.387 33.6567 231.56 32.3C232.733 30.9433 233.32 28.8533 233.32 26.03C233.32 23.2067 232.733 21.135 231.56 19.815C230.387 18.495 228.828 17.835 226.885 17.835C224.978 17.835 223.42 18.495 222.21 19.815C221.037 21.135 220.45 23.2067 220.45 26.03C220.45 28.8533 221.037 30.9433 222.21 32.3C223.42 33.6567 224.978 34.335 226.885 34.335ZM261.34 40.605C258.37 40.605 255.767 40.0183 253.53 38.845C251.294 37.6717 249.57 35.985 248.36 33.785C247.15 31.585 246.545 28.9817 246.545 25.975C246.545 22.9317 247.15 20.3467 248.36 18.22C249.607 16.0567 251.33 14.4067 253.53 13.27C255.767 12.1333 258.37 11.565 261.34 11.565C263.21 11.565 265.025 11.84 266.785 12.39C268.582 12.94 270.049 13.71 271.185 14.7L268.765 20.42C267.849 19.5767 266.785 18.9533 265.575 18.55C264.402 18.11 263.265 17.89 262.165 17.89C259.929 17.89 258.187 18.5867 256.94 19.98C255.694 21.3733 255.07 23.39 255.07 26.03C255.07 28.67 255.694 30.6867 256.94 32.08C258.187 33.4733 259.929 34.17 262.165 34.17C263.229 34.17 264.347 33.9683 265.52 33.565C266.73 33.1617 267.812 32.5567 268.765 31.75L271.185 37.415C270.012 38.405 268.527 39.1933 266.73 39.78C264.97 40.33 263.174 40.605 261.34 40.605ZM276.597 40V12.115H284.792V22.62H288.367L295.902 12.115H304.757L294.637 26.305L292.987 23.665C293.977 23.775 294.875 24.0683 295.682 24.545C296.488 25.0217 297.24 25.645 297.937 26.415C298.67 27.185 299.33 28.1017 299.917 29.165L305.857 40H297.057L292.492 31.805C292.125 31.0717 291.722 30.5033 291.282 30.1C290.878 29.66 290.42 29.3667 289.907 29.22C289.393 29.0367 288.77 28.945 288.037 28.945H284.792V40H276.597ZM308.984 40V12.115H316.464V31.695H314.649L329.389 12.115H336.209V40H328.729V20.42H330.544L315.749 40H308.984ZM343.413 40V12.115H350.893V31.695H349.078L363.818 12.115H370.638V40H363.158V20.42H364.973L350.178 40H343.413ZM356.943 9.695C354.927 9.695 353.185 9.365 351.718 8.705C350.252 8.045 349.06 7.12833 348.143 5.955C347.263 4.78167 346.658 3.44333 346.328 1.94L350.398 0.619999C350.985 2.27 351.81 3.48 352.873 4.25C353.937 4.98333 355.33 5.35 357.053 5.35C358.74 5.35 360.115 4.965 361.178 4.195C362.242 3.425 363.085 2.25166 363.708 0.674998L367.558 1.94C366.898 4.36 365.652 6.26666 363.818 7.66C362.022 9.01667 359.73 9.695 356.943 9.695Z" fill="#FD9F32"/>
<path d="M0.63 92V64.115H7.505L16.635 79.625L25.71 64.115H32.585V92H25.27V73.465H26.645L18.505 87.49H14.71L6.57 73.465H7.89V92H0.63ZM39.784 104.485L37.859 97.995C39.5823 97.665 41.0307 97.28 42.204 96.84C43.414 96.4 44.404 95.8133 45.174 95.08C45.944 94.3833 46.5673 93.4667 47.044 92.33L48.419 89.085L48.199 92.275L36.099 64.115H44.844L52.819 84.3H51.114L59.199 64.115H67.449L54.854 93.1C53.9373 95.19 52.9473 96.9133 51.884 98.27C50.8573 99.6633 49.739 100.763 48.529 101.57C47.319 102.377 45.9807 103 44.514 103.44C43.084 103.88 41.5073 104.228 39.784 104.485ZM70.9913 92V64.115H79.1863V74.62H82.7613L90.2963 64.115H99.1513L89.0313 78.305L87.3813 75.665C88.3713 75.775 89.2697 76.0683 90.0763 76.545C90.883 77.0217 91.6347 77.645 92.3313 78.415C93.0647 79.185 93.7247 80.1017 94.3113 81.165L100.251 92H91.4513L86.8863 83.805C86.5197 83.0717 86.1163 82.5033 85.6763 82.1C85.273 81.66 84.8147 81.3667 84.3013 81.22C83.788 81.0367 83.1647 80.945 82.4313 80.945H79.1863V92H70.9913ZM116.799 92.605C113.829 92.605 111.244 92.0183 109.044 90.845C106.881 89.635 105.194 87.9483 103.984 85.785C102.811 83.6217 102.224 81.0367 102.224 78.03C102.224 75.06 102.811 72.4933 103.984 70.33C105.194 68.1667 106.881 66.4983 109.044 65.325C111.244 64.1517 113.829 63.565 116.799 63.565C119.769 63.565 122.354 64.1517 124.554 65.325C126.754 66.4983 128.441 68.1667 129.614 70.33C130.824 72.4933 131.429 75.06 131.429 78.03C131.429 81.0367 130.824 83.6217 129.614 85.785C128.441 87.9483 126.754 89.635 124.554 90.845C122.354 92.0183 119.769 92.605 116.799 92.605ZM116.799 86.335C118.706 86.335 120.209 85.6567 121.309 84.3C122.446 82.9433 123.014 80.8533 123.014 78.03C123.014 75.2067 122.446 73.135 121.309 71.815C120.209 70.495 118.706 69.835 116.799 69.835C114.892 69.835 113.371 70.495 112.234 71.815C111.134 73.135 110.584 75.2067 110.584 78.03C110.584 80.8533 111.134 82.9433 112.234 84.3C113.371 85.6567 114.892 86.335 116.799 86.335ZM137.485 92V64.115H144.36L153.49 79.625L162.565 64.115H169.44V92H162.125V73.465H163.5L155.36 87.49H151.565L143.425 73.465H144.745V92H137.485ZM190.114 92.605C187.144 92.605 184.559 92.0183 182.359 90.845C180.196 89.635 178.509 87.9483 177.299 85.785C176.126 83.6217 175.539 81.0367 175.539 78.03C175.539 75.06 176.126 72.4933 177.299 70.33C178.509 68.1667 180.196 66.4983 182.359 65.325C184.559 64.1517 187.144 63.565 190.114 63.565C193.084 63.565 195.669 64.1517 197.869 65.325C200.069 66.4983 201.756 68.1667 202.929 70.33C204.139 72.4933 204.744 75.06 204.744 78.03C204.744 81.0367 204.139 83.6217 202.929 85.785C201.756 87.9483 200.069 89.635 197.869 90.845C195.669 92.0183 193.084 92.605 190.114 92.605ZM190.114 86.335C192.021 86.335 193.524 85.6567 194.624 84.3C195.761 82.9433 196.329 80.8533 196.329 78.03C196.329 75.2067 195.761 73.135 194.624 71.815C193.524 70.495 192.021 69.835 190.114 69.835C188.208 69.835 186.686 70.495 185.549 71.815C184.449 73.135 183.899 75.2067 183.899 78.03C183.899 80.8533 184.449 82.9433 185.549 84.3C186.686 85.6567 188.208 86.335 190.114 86.335ZM209.989 92.825L207.514 86.335C208.687 85.9683 209.677 85.4733 210.484 84.85C211.29 84.2267 211.932 83.42 212.409 82.43C212.922 81.44 213.289 80.2117 213.509 78.745C213.729 77.2783 213.839 75.5367 213.839 73.52V64.115H237.214V92H228.964V70.44H221.319V73.795C221.319 77.6083 220.915 80.835 220.109 83.475C219.302 86.115 218.074 88.205 216.424 89.745C214.774 91.285 212.629 92.3117 209.989 92.825ZM244.478 92V64.115H252.673V73.08H259.383C263.196 73.08 266.056 73.8683 267.963 75.445C269.869 77.0217 270.823 79.3133 270.823 82.32C270.823 84.2633 270.364 85.9683 269.448 87.435C268.531 88.865 267.211 89.9833 265.488 90.79C263.801 91.5967 261.766 92 259.383 92H244.478ZM252.673 86.72H258.118C259.768 86.72 261.033 86.3717 261.913 85.675C262.829 84.9417 263.288 83.8783 263.288 82.485C263.288 81.055 262.848 80.01 261.968 79.35C261.088 78.69 259.804 78.36 258.118 78.36H252.673V86.72ZM276.006 92V64.115H284.201V74.62H295.201V64.115H303.396V92H295.201V80.945H284.201V92H276.006ZM310.65 92V64.115H318.845V73.08H325.555C329.368 73.08 332.228 73.8683 334.135 75.445C336.041 77.0217 336.995 79.3133 336.995 82.32C336.995 84.2633 336.536 85.9683 335.62 87.435C334.703 88.865 333.383 89.9833 331.66 90.79C329.973 91.5967 327.938 92 325.555 92H310.65ZM318.845 86.72H324.29C325.94 86.72 327.205 86.3717 328.085 85.675C329.001 84.9417 329.46 83.8783 329.46 82.485C329.46 81.055 329.02 80.01 328.14 79.35C327.26 78.69 325.976 78.36 324.29 78.36H318.845V86.72ZM340.02 92V64.115H348.27V92H340.02ZM355.498 92V64.115H362.978V83.695H361.163L375.903 64.115H382.723V92H375.243V72.42H377.058L362.263 92H355.498ZM369.028 61.695C367.011 61.695 365.27 61.365 363.803 60.705C362.336 60.045 361.145 59.1283 360.228 57.955C359.348 56.7817 358.743 55.4433 358.413 53.94L362.483 52.62C363.07 54.27 363.895 55.48 364.958 56.25C366.021 56.9833 367.415 57.35 369.138 57.35C370.825 57.35 372.2 56.965 373.263 56.195C374.326 55.425 375.17 54.2517 375.793 52.675L379.643 53.94C378.983 56.36 377.736 58.2667 375.903 59.66C374.106 61.0167 371.815 61.695 369.028 61.695ZM405.449 92V64.115H413.644V74.62H417.219L424.754 64.115H433.609L423.489 78.305L421.839 75.665C422.829 75.775 423.728 76.0683 424.534 76.545C425.341 77.0217 426.093 77.645 426.789 78.415C427.523 79.185 428.183 80.1017 428.769 81.165L434.709 92H425.909L421.344 83.805C420.978 83.0717 420.574 82.5033 420.134 82.1C419.731 81.66 419.273 81.3667 418.759 81.22C418.246 81.0367 417.623 80.945 416.889 80.945H413.644V92H405.449ZM451.257 92.605C448.287 92.605 445.702 92.0183 443.502 90.845C441.339 89.635 439.652 87.9483 438.442 85.785C437.269 83.6217 436.682 81.0367 436.682 78.03C436.682 75.06 437.269 72.4933 438.442 70.33C439.652 68.1667 441.339 66.4983 443.502 65.325C445.702 64.1517 448.287 63.565 451.257 63.565C454.227 63.565 456.812 64.1517 459.012 65.325C461.212 66.4983 462.899 68.1667 464.072 70.33C465.282 72.4933 465.887 75.06 465.887 78.03C465.887 81.0367 465.282 83.6217 464.072 85.785C462.899 87.9483 461.212 89.635 459.012 90.845C456.812 92.0183 454.227 92.605 451.257 92.605ZM451.257 86.335C453.164 86.335 454.667 85.6567 455.767 84.3C456.904 82.9433 457.472 80.8533 457.472 78.03C457.472 75.2067 456.904 73.135 455.767 71.815C454.667 70.495 453.164 69.835 451.257 69.835C449.35 69.835 447.829 70.495 446.692 71.815C445.592 73.135 445.042 75.2067 445.042 78.03C445.042 80.8533 445.592 82.9433 446.692 84.3C447.829 85.6567 449.35 86.335 451.257 86.335ZM471.943 92V64.115H478.818L487.948 79.625L497.023 64.115H503.898V92H496.583V73.465H497.958L489.818 87.49H486.023L477.883 73.465H479.203V92H471.943ZM524.902 92.605C520.356 92.605 516.726 91.285 514.012 88.645C511.336 85.9683 509.997 82.045 509.997 76.875V72.2C509.997 66.8833 511.262 62.6117 513.792 59.385C516.322 56.1583 520.099 54.05 525.122 53.06L535.297 50.915L537.497 57.35L525.892 59.715C524.059 60.0817 522.537 60.7783 521.327 61.805C520.154 62.8317 519.256 64.06 518.632 65.49C518.046 66.8833 517.752 68.405 517.752 70.055V73.41H516.707C517.074 71.76 517.716 70.3117 518.632 69.065C519.586 67.8183 520.796 66.8283 522.262 66.095C523.729 65.3617 525.434 64.995 527.377 64.995C529.687 64.995 531.722 65.5267 533.482 66.59C535.279 67.6533 536.691 69.1933 537.717 71.21C538.744 73.2267 539.257 75.6283 539.257 78.415C539.257 81.3117 538.652 83.8233 537.442 85.95C536.269 88.0767 534.601 89.7267 532.437 90.9C530.311 92.0367 527.799 92.605 524.902 92.605ZM524.627 86.39C526.644 86.39 528.202 85.7667 529.302 84.52C530.439 83.2367 531.007 81.33 531.007 78.8C531.007 76.27 530.439 74.3633 529.302 73.08C528.166 71.7967 526.607 71.155 524.627 71.155C522.647 71.155 521.089 71.7967 519.952 73.08C518.816 74.3633 518.247 76.215 518.247 78.635C518.247 81.2383 518.816 83.1817 519.952 84.465C521.089 85.7483 522.647 86.39 524.627 86.39ZM545.313 92V64.115H552.793V83.695H550.978L565.718 64.115H572.538V92H565.058V72.42H566.873L552.078 92H545.313ZM579.741 92V64.115H587.936V74.62H598.936V64.115H607.131V92H598.936V80.945H587.936V92H579.741ZM625.44 92.605C623.02 92.605 620.893 92.0183 619.06 90.845C617.227 89.6717 615.797 88.0033 614.77 85.84C613.743 83.6767 613.23 81.0733 613.23 78.03C613.23 75.0233 613.743 72.4383 614.77 70.275C615.797 68.1117 617.227 66.4617 619.06 65.325C620.893 64.1517 623.02 63.565 625.44 63.565C627.677 63.565 629.675 64.115 631.435 65.215C633.232 66.2783 634.405 67.7267 634.955 69.56H634.35L635.01 64.115H642.985C642.875 65.325 642.765 66.5533 642.655 67.8C642.582 69.01 642.545 70.2017 642.545 71.375V92H634.295L634.24 86.775H634.9C634.313 88.535 633.14 89.9467 631.38 91.01C629.62 92.0733 627.64 92.605 625.44 92.605ZM627.97 86.335C629.877 86.335 631.417 85.6567 632.59 84.3C633.763 82.9433 634.35 80.8533 634.35 78.03C634.35 75.2067 633.763 73.135 632.59 71.815C631.417 70.495 629.877 69.835 627.97 69.835C626.063 69.835 624.523 70.495 623.35 71.815C622.177 73.135 621.59 75.2067 621.59 78.03C621.59 80.8533 622.158 82.9433 623.295 84.3C624.468 85.6567 626.027 86.335 627.97 86.335ZM656.045 92V70.605H646.805V64.115H673.535V70.605H664.24V92H656.045Z" fill="#B69D86"/>
</svg>
