<svg width="240" height="112" viewBox="0 0 240 112" fill="none" xmlns="http://www.w3.org/2000/svg">
<rect x="3.36816" y="4.94116" width="231.579" height="101.294" rx="4" fill="#F4EEE5"/>
<path fill-rule="evenodd" clip-rule="evenodd" d="M14.3156 7.04998C14.2881 10.893 11.094 14 7.15789 14C3.2047 14 0 10.866 0 7C0 3.13401 3.2047 0 7.15789 0C11.094 0 14.2881 3.10703 14.3156 6.95002C14.3431 3.10703 17.5372 0 21.4733 0C25.4265 0 28.6312 3.13401 28.6312 7C28.6312 10.866 25.4265 14 21.4733 14C17.5372 14 14.3431 10.893 14.3156 7.04998ZM7.15789 28C3.2047 28 0 24.866 0 21C0 17.134 3.2047 14 7.15789 14C11.1111 14 14.3158 17.134 14.3158 21C14.3158 24.866 11.1111 28 7.15789 28ZM7.15789 42C3.2047 42 0 38.866 0 35C0 31.134 3.2047 28 7.15789 28C11.1111 28 14.3158 31.134 14.3158 35C14.3158 38.866 11.1111 42 7.15789 42ZM7.15789 56C3.2047 56 0 52.866 0 49C0 45.134 3.2047 42 7.15789 42C11.1111 42 14.3158 45.134 14.3158 49C14.3158 52.866 11.1111 56 7.15789 56ZM7.15789 70C3.2047 70 0 66.866 0 63C0 59.134 3.2047 56 7.15789 56C11.1111 56 14.3158 59.134 14.3158 63C14.3158 66.866 11.1111 70 7.15789 70ZM7.15789 84C3.2047 84 0 80.866 0 77C0 73.134 3.2047 70 7.15789 70C11.1111 70 14.3158 73.134 14.3158 77C14.3158 80.866 11.1111 84 7.15789 84ZM7.15789 84C3.2047 84 0 87.134 0 91C0 94.866 3.2047 98 7.15789 98C11.1111 98 14.3158 94.866 14.3158 91C14.3158 87.134 11.1111 84 7.15789 84ZM42.1055 7.01926C42.0955 10.8764 39.0832 14 35.3687 14C31.648 14 28.6318 10.866 28.6318 7C28.6318 3.13401 31.648 0 35.3687 0C39.0832 0 42.0955 3.1236 42.1055 6.98074C42.1161 3.12361 45.3167 0 49.2634 0C53.1995 0 56.3936 3.10707 56.4211 6.95008C56.4485 3.10707 59.6426 0 63.5788 0C67.532 0 70.7367 3.13401 70.7367 7C70.7367 10.866 67.532 14 63.5788 14C59.6426 14 56.4485 10.8929 56.4211 7.04992C56.3936 10.8929 53.1995 14 49.2634 14C45.3167 14 42.1161 10.8764 42.1055 7.01926ZM77.8952 14C81.8293 14 85.0221 10.8962 85.0529 7.05594C85.0818 10.8962 88.0868 14 91.7895 14C95.5102 14 98.5263 10.866 98.5263 7C98.5263 10.866 101.731 14 105.684 14C109.621 14 112.815 10.8921 112.842 7.04832C112.869 10.8921 116.063 14 120 14C123.953 14 127.158 10.866 127.158 7C127.158 3.13401 123.953 0 120 0C116.063 0 112.869 3.10793 112.842 6.95168C112.815 3.10793 109.621 0 105.684 0C101.731 0 98.5263 3.13401 98.5263 7C98.5263 3.13401 95.5102 0 91.7895 0C88.0868 0 85.0818 3.10382 85.0529 6.94406C85.0221 3.10382 81.8293 0 77.8952 0C73.942 0 70.7373 3.13401 70.7373 7C70.7373 10.866 73.942 14 77.8952 14ZM134.316 14C138.252 14 141.446 10.893 141.474 7.05013C141.5 10.8931 144.506 14 148.21 14C151.931 14 154.947 10.866 154.947 7C154.947 3.13401 151.931 0 148.21 0C144.506 0 141.5 3.10695 141.474 6.94987C141.446 3.10695 138.252 0 134.316 0C130.363 0 127.158 3.13401 127.158 7C127.158 10.866 130.363 14 134.316 14ZM162.105 14C166.039 14 169.232 10.896 169.263 7.05557C169.293 10.896 172.486 14 176.421 14C180.374 14 183.578 10.866 183.578 7C183.578 3.13401 180.374 0 176.421 0C172.486 0 169.293 3.10402 169.263 6.94443C169.232 3.10402 166.039 0 162.105 0C158.152 0 154.947 3.13401 154.947 7C154.947 10.866 158.152 14 162.105 14ZM190.737 14C194.673 14 197.867 10.8936 197.895 7.05121C197.921 10.8936 200.927 14 204.631 14C208.346 14 211.359 10.8756 211.368 7.01771C211.378 10.8755 214.579 14 218.526 14C222.479 14 225.684 10.866 225.684 7C225.684 3.13401 222.479 0 218.526 0C214.579 0 211.378 3.12445 211.368 6.98229C211.359 3.12444 208.346 0 204.631 0C200.927 0 197.921 3.10636 197.895 6.94879C197.867 3.10637 194.673 0 190.737 0C186.784 0 183.579 3.13401 183.579 7C183.579 10.866 186.784 14 190.737 14ZM240 7C240 10.866 236.796 14 232.842 14C228.889 14 225.685 10.866 225.685 7C225.685 3.13401 228.889 0 232.842 0C236.796 0 240 3.13401 240 7ZM232.842 28C236.796 28 240 24.866 240 21C240 17.134 236.796 14 232.842 14C228.889 14 225.685 17.134 225.685 21C225.685 24.866 228.889 28 232.842 28ZM232.842 42C236.796 42 240 38.866 240 35C240 31.134 236.796 28 232.842 28C228.889 28 225.685 31.134 225.685 35C225.685 38.866 228.889 42 232.842 42ZM232.842 56C236.796 56 240 52.866 240 49C240 45.134 236.796 42 232.842 42C228.889 42 225.685 45.134 225.685 49C225.685 52.866 228.889 56 232.842 56ZM232.842 70C236.796 70 240 66.866 240 63C240 59.134 236.796 56 232.842 56C228.889 56 225.685 59.134 225.685 63C225.685 66.866 228.889 70 232.842 70ZM232.842 84C236.796 84 240 80.866 240 77C240 73.134 236.796 70 232.842 70C228.889 70 225.685 73.134 225.685 77C225.685 80.866 228.889 84 232.842 84ZM232.842 98C236.796 98 240 94.866 240 91C240 87.134 236.796 84 232.842 84C228.889 84 225.685 87.134 225.685 91C225.685 94.866 228.889 98 232.842 98ZM232.842 98C236.796 98 240 101.134 240 105C240 108.866 236.796 112 232.842 112C228.889 112 225.685 108.866 225.685 105C225.685 101.134 228.889 98 232.842 98Z" fill="#F4EEE5"/>
<path fill-rule="evenodd" clip-rule="evenodd" d="M7.15789 111.177C11.094 111.177 14.2881 108.069 14.3156 104.226C14.3431 108.069 17.5372 111.177 21.4733 111.177C25.4265 111.177 28.6312 108.043 28.6312 104.177C28.6312 100.311 25.4265 97.1765 21.4733 97.1765C17.5372 97.1765 14.3431 100.284 14.3156 104.127C14.2881 100.284 11.094 97.1765 7.15789 97.1765C3.2047 97.1765 0 100.311 0 104.177C0 108.043 3.2047 111.177 7.15789 111.177ZM35.3687 111.177C39.0832 111.177 42.0955 108.053 42.1055 104.196C42.1161 108.053 45.3167 111.177 49.2634 111.177C53.1995 111.177 56.3936 108.069 56.4211 104.226C56.4485 108.069 59.6426 111.177 63.5788 111.177C67.532 111.177 70.7367 108.043 70.7367 104.177C70.7367 100.311 67.532 97.1765 63.5788 97.1765C59.6426 97.1765 56.4485 100.284 56.4211 104.127C56.3936 100.284 53.1995 97.1765 49.2634 97.1765C45.3167 97.1765 42.1161 100.3 42.1055 104.157C42.0955 100.3 39.0832 97.1765 35.3687 97.1765C31.648 97.1765 28.6318 100.311 28.6318 104.177C28.6318 108.043 31.648 111.177 35.3687 111.177ZM85.0529 104.232C85.0221 108.073 81.8293 111.177 77.8952 111.177C73.942 111.177 70.7373 108.043 70.7373 104.177C70.7373 100.311 73.942 97.1765 77.8952 97.1765C81.8293 97.1765 85.0221 100.28 85.0529 104.121C85.0818 100.28 88.0868 97.1765 91.7895 97.1765C95.5102 97.1765 98.5263 100.311 98.5263 104.177C98.5263 108.043 95.5102 111.177 91.7895 111.177C88.0868 111.177 85.0818 108.073 85.0529 104.232ZM98.5263 104.177C98.5263 100.311 101.731 97.1765 105.684 97.1765C109.621 97.1765 112.815 100.284 112.842 104.128C112.869 100.284 116.063 97.1765 120 97.1765C123.953 97.1765 127.158 100.311 127.158 104.177C127.158 108.043 123.953 111.177 120 111.177C116.063 111.177 112.869 108.069 112.842 104.225C112.815 108.069 109.621 111.177 105.684 111.177C101.731 111.177 98.5263 108.043 98.5263 104.177ZM141.474 104.227C141.446 108.07 138.252 111.177 134.316 111.177C130.363 111.177 127.158 108.043 127.158 104.177C127.158 100.311 130.363 97.1765 134.316 97.1765C138.252 97.1765 141.446 100.283 141.474 104.126C141.5 100.283 144.506 97.1765 148.21 97.1765C151.931 97.1765 154.947 100.311 154.947 104.177C154.947 108.043 151.931 111.177 148.21 111.177C144.506 111.177 141.5 108.07 141.474 104.227ZM169.263 104.232C169.232 108.072 166.039 111.177 162.105 111.177C158.152 111.177 154.947 108.043 154.947 104.177C154.947 100.311 158.152 97.1765 162.105 97.1765C166.039 97.1765 169.232 100.281 169.263 104.121C169.293 100.281 172.486 97.1765 176.421 97.1765C180.374 97.1765 183.578 100.311 183.578 104.177C183.578 108.043 180.374 111.177 176.421 111.177C172.486 111.177 169.293 108.072 169.263 104.232ZM197.895 104.228C197.867 108.07 194.673 111.177 190.737 111.177C186.784 111.177 183.579 108.043 183.579 104.177C183.579 100.311 186.784 97.1765 190.737 97.1765C194.673 97.1765 197.867 100.283 197.895 104.125C197.921 100.283 200.927 97.1765 204.631 97.1765C208.346 97.1765 211.359 100.301 211.368 104.159C211.378 100.301 214.579 97.1765 218.526 97.1765C222.479 97.1765 225.684 100.311 225.684 104.177C225.684 108.043 222.479 111.177 218.526 111.177C214.579 111.177 211.378 108.052 211.368 104.194C211.359 108.052 208.346 111.177 204.631 111.177C200.927 111.177 197.921 108.07 197.895 104.228ZM232.842 111.177C236.796 111.177 240 108.043 240 104.177C240 100.311 236.796 97.1765 232.842 97.1765C228.889 97.1765 225.685 100.311 225.685 104.177C225.685 108.043 228.889 111.177 232.842 111.177Z" fill="#F4EEE5"/>
<path d="M28.202 43.18C27.326 43.18 26.486 43.054 25.682 42.802C24.878 42.538 24.218 42.178 23.702 41.722L24.458 39.976C25.022 40.408 25.604 40.726 26.204 40.93C26.816 41.134 27.458 41.236 28.13 41.236C28.946 41.236 29.564 41.074 29.984 40.75C30.404 40.426 30.614 39.952 30.614 39.328C30.614 38.728 30.404 38.278 29.984 37.978C29.576 37.666 28.976 37.51 28.184 37.51H26.132V35.656H27.986C28.67 35.656 29.216 35.488 29.624 35.152C30.032 34.816 30.236 34.354 30.236 33.766C30.236 33.214 30.044 32.794 29.66 32.506C29.288 32.218 28.748 32.074 28.04 32.074C26.768 32.074 25.646 32.506 24.674 33.37L23.918 31.642C24.434 31.162 25.07 30.79 25.826 30.526C26.594 30.262 27.398 30.13 28.238 30.13C29.558 30.13 30.59 30.43 31.334 31.03C32.09 31.618 32.468 32.44 32.468 33.496C32.468 34.252 32.252 34.906 31.82 35.458C31.4 35.998 30.818 36.358 30.074 36.538V36.322C30.95 36.466 31.628 36.826 32.108 37.402C32.6 37.966 32.846 38.674 32.846 39.526C32.846 40.654 32.432 41.548 31.604 42.208C30.776 42.856 29.642 43.18 28.202 43.18ZM35.017 43V41.29L39.229 36.898C39.757 36.346 40.147 35.836 40.399 35.368C40.651 34.9 40.777 34.42 40.777 33.928C40.777 33.316 40.585 32.854 40.201 32.542C39.817 32.23 39.259 32.074 38.527 32.074C37.939 32.074 37.375 32.182 36.835 32.398C36.295 32.602 35.767 32.926 35.251 33.37L34.495 31.642C35.011 31.186 35.647 30.82 36.403 30.544C37.171 30.268 37.975 30.13 38.815 30.13C40.183 30.13 41.233 30.436 41.965 31.048C42.697 31.66 43.063 32.536 43.063 33.676C43.063 34.468 42.877 35.224 42.505 35.944C42.133 36.652 41.557 37.396 40.777 38.176L37.267 41.686V41.074H43.567V43H35.017ZM45.4319 38.932V37.15H50.9039V38.932H45.4319ZM57.1405 43.18C56.2645 43.18 55.4245 43.054 54.6205 42.802C53.8165 42.538 53.1565 42.178 52.6405 41.722L53.3965 39.976C53.9605 40.408 54.5425 40.726 55.1425 40.93C55.7545 41.134 56.3965 41.236 57.0685 41.236C57.8845 41.236 58.5025 41.074 58.9225 40.75C59.3425 40.426 59.5525 39.952 59.5525 39.328C59.5525 38.728 59.3425 38.278 58.9225 37.978C58.5145 37.666 57.9145 37.51 57.1225 37.51H55.0705V35.656H56.9245C57.6085 35.656 58.1545 35.488 58.5625 35.152C58.9705 34.816 59.1745 34.354 59.1745 33.766C59.1745 33.214 58.9825 32.794 58.5985 32.506C58.2265 32.218 57.6865 32.074 56.9785 32.074C55.7065 32.074 54.5845 32.506 53.6125 33.37L52.8565 31.642C53.3725 31.162 54.0085 30.79 54.7645 30.526C55.5325 30.262 56.3365 30.13 57.1765 30.13C58.4965 30.13 59.5285 30.43 60.2725 31.03C61.0285 31.618 61.4065 32.44 61.4065 33.496C61.4065 34.252 61.1905 34.906 60.7585 35.458C60.3385 35.998 59.7565 36.358 59.0125 36.538V36.322C59.8885 36.466 60.5665 36.826 61.0465 37.402C61.5385 37.966 61.7845 38.674 61.7845 39.526C61.7845 40.654 61.3705 41.548 60.5425 42.208C59.7145 42.856 58.5805 43.18 57.1405 43.18ZM68.0415 43.18C67.4895 43.18 66.9375 43.12 66.3855 43C65.8455 42.88 65.3355 42.712 64.8555 42.496C64.3875 42.28 63.9855 42.022 63.6495 41.722L64.4055 39.976C64.9695 40.396 65.5455 40.714 66.1335 40.93C66.7335 41.134 67.3575 41.236 68.0055 41.236C68.7855 41.236 69.3915 41.044 69.8235 40.66C70.2675 40.264 70.4895 39.736 70.4895 39.076C70.4895 38.404 70.2795 37.864 69.8595 37.456C69.4395 37.036 68.8635 36.826 68.1315 36.826C67.6155 36.826 67.1415 36.928 66.7095 37.132C66.2895 37.324 65.9115 37.624 65.5755 38.032H64.0455V30.31H71.9295V32.218H66.2415V36.25H65.6835C65.9955 35.83 66.4095 35.506 66.9255 35.278C67.4535 35.05 68.0415 34.936 68.6895 34.936C69.5055 34.936 70.2135 35.104 70.8135 35.44C71.4135 35.776 71.8815 36.25 72.2175 36.862C72.5535 37.462 72.7215 38.17 72.7215 38.986C72.7215 39.814 72.5295 40.546 72.1455 41.182C71.7735 41.806 71.2335 42.298 70.5255 42.658C69.8295 43.006 69.0015 43.18 68.0415 43.18ZM79.2019 43V33.91H86.0239V35.674H81.4519V43H79.2019Z" fill="#50220F"/>
<path d="M24.204 68V58.13H28.222C29.286 58.13 30.1027 58.354 30.672 58.802C31.2413 59.25 31.526 59.88 31.526 60.692C31.526 61.308 31.3393 61.8213 30.966 62.232C30.602 62.6427 30.1027 62.918 29.468 63.058V62.848C30.196 62.932 30.7607 63.184 31.162 63.604C31.5727 64.024 31.778 64.5793 31.778 65.27C31.778 66.1473 31.484 66.824 30.896 67.3C30.308 67.7667 29.4773 68 28.404 68H24.204ZM25.464 66.964H28.278C28.9687 66.964 29.51 66.8333 29.902 66.572C30.3033 66.3013 30.504 65.858 30.504 65.242C30.504 64.6167 30.3033 64.1733 29.902 63.912C29.51 63.6507 28.9687 63.52 28.278 63.52H25.464V66.964ZM25.464 62.484H28.04C28.7773 62.484 29.328 62.344 29.692 62.064C30.056 61.7747 30.238 61.3593 30.238 60.818C30.238 60.2767 30.056 59.866 29.692 59.586C29.328 59.2967 28.7773 59.152 28.04 59.152H25.464V62.484ZM36.7566 68.126C35.6366 68.126 34.75 67.804 34.0966 67.16C33.4526 66.516 33.1306 65.6293 33.1306 64.5C33.1306 63.7533 33.2706 63.1093 33.5506 62.568C33.84 62.0173 34.2366 61.5927 34.7406 61.294C35.2446 60.986 35.8326 60.832 36.5046 60.832C37.1486 60.832 37.6946 60.972 38.1426 61.252C38.5906 61.5227 38.9313 61.91 39.1646 62.414C39.398 62.918 39.5146 63.5153 39.5146 64.206V64.626H34.1246V63.87H38.6466L38.4086 64.052C38.4086 63.324 38.2453 62.7593 37.9186 62.358C37.6013 61.9567 37.13 61.756 36.5046 61.756C35.8233 61.756 35.296 61.994 34.9226 62.47C34.5493 62.9367 34.3626 63.576 34.3626 64.388V64.514C34.3626 65.3727 34.5726 66.0213 34.9926 66.46C35.422 66.8987 36.0146 67.118 36.7706 67.118C37.1906 67.118 37.5826 67.0573 37.9466 66.936C38.3106 66.8147 38.6606 66.614 38.9966 66.334L39.4166 67.216C39.0993 67.5053 38.7026 67.7293 38.2266 67.888C37.76 68.0467 37.27 68.126 36.7566 68.126ZM44.2139 68.126C43.5139 68.126 42.9073 67.9813 42.3939 67.692C41.8806 67.3933 41.4793 66.9687 41.1899 66.418C40.9099 65.858 40.7699 65.1953 40.7699 64.43C40.7699 63.674 40.9146 63.03 41.2039 62.498C41.4933 61.9567 41.8946 61.546 42.4079 61.266C42.9213 60.9767 43.5233 60.832 44.2139 60.832C44.6713 60.832 45.1146 60.9113 45.5439 61.07C45.9733 61.2193 46.3233 61.4387 46.5939 61.728L46.1599 62.624C45.8893 62.3627 45.5906 62.1713 45.2639 62.05C44.9373 61.9193 44.6153 61.854 44.2979 61.854C43.6073 61.854 43.0659 62.078 42.6739 62.526C42.2819 62.9647 42.0859 63.604 42.0859 64.444C42.0859 65.2933 42.2819 65.9467 42.6739 66.404C43.0659 66.8613 43.6073 67.09 44.2979 67.09C44.6059 67.09 44.9233 67.0293 45.2499 66.908C45.5766 66.7867 45.8799 66.5953 46.1599 66.334L46.5939 67.216C46.3139 67.5147 45.9546 67.7433 45.5159 67.902C45.0866 68.0513 44.6526 68.126 44.2139 68.126ZM52.3127 68V66.894H54.6227V59.236H55.2807L52.5227 60.944V59.67L54.9867 58.13H55.9247V66.894H58.0947V68H52.3127ZM66.4847 68.126C65.794 68.126 65.1967 67.9813 64.6927 67.692C64.1887 67.3933 63.7967 66.9733 63.5167 66.432C63.2367 65.8813 63.0967 65.228 63.0967 64.472C63.0967 63.7253 63.2367 63.0813 63.5167 62.54C63.7967 61.9893 64.1887 61.5693 64.6927 61.28C65.1967 60.9813 65.794 60.832 66.4847 60.832C67.1753 60.832 67.7727 60.9813 68.2767 61.28C68.79 61.5693 69.182 61.9893 69.4527 62.54C69.7327 63.0813 69.8727 63.7253 69.8727 64.472C69.8727 65.228 69.7327 65.8813 69.4527 66.432C69.182 66.9733 68.79 67.3933 68.2767 67.692C67.7727 67.9813 67.1753 68.126 66.4847 68.126ZM66.4847 67.118C67.1193 67.118 67.628 66.894 68.0107 66.446C68.3933 65.998 68.5847 65.34 68.5847 64.472C68.5847 63.604 68.3933 62.9507 68.0107 62.512C67.628 62.0733 67.1193 61.854 66.4847 61.854C65.8407 61.854 65.3273 62.0733 64.9447 62.512C64.5713 62.9507 64.3847 63.604 64.3847 64.472C64.3847 65.34 64.5713 65.998 64.9447 66.446C65.3273 66.894 65.8407 67.118 66.4847 67.118ZM73.0635 68V61.98H70.5295V60.958H76.8575V61.98H74.3235V68H73.0635ZM80.9443 68.126C79.8896 68.126 79.0543 67.7947 78.4383 67.132C77.8223 66.4693 77.5143 65.4987 77.5143 64.22V63.002C77.5143 61.6953 77.7896 60.6407 78.3403 59.838C78.8909 59.0353 79.7449 58.494 80.9023 58.214L83.4783 57.57L83.8563 58.606L81.0003 59.292C80.4869 59.4133 80.0623 59.6327 79.7263 59.95C79.3903 60.2673 79.1383 60.6407 78.9703 61.07C78.8116 61.4993 78.7323 61.9567 78.7323 62.442V63.044H78.5363C78.6483 62.624 78.8256 62.26 79.0683 61.952C79.3203 61.644 79.6329 61.4107 80.0063 61.252C80.3796 61.084 80.7903 61 81.2383 61C81.8449 61 82.3769 61.14 82.8343 61.42C83.2916 61.7 83.6463 62.106 83.8983 62.638C84.1596 63.1607 84.2903 63.786 84.2903 64.514C84.2903 65.2607 84.1503 65.9047 83.8703 66.446C83.5996 66.9873 83.2123 67.4027 82.7083 67.692C82.2043 67.9813 81.6163 68.126 80.9443 68.126ZM80.9023 67.118C81.5556 67.118 82.0689 66.9033 82.4423 66.474C82.8249 66.0447 83.0163 65.4053 83.0163 64.556C83.0163 63.7253 82.8249 63.0907 82.4423 62.652C82.0689 62.2133 81.5556 61.994 80.9023 61.994C80.2489 61.994 79.7309 62.2087 79.3483 62.638C78.9749 63.0673 78.7883 63.6787 78.7883 64.472C78.7883 65.3587 78.9749 66.0213 79.3483 66.46C79.7309 66.8987 80.2489 67.118 80.9023 67.118ZM88.965 68.126C88.2744 68.126 87.677 67.9813 87.173 67.692C86.669 67.3933 86.277 66.9733 85.997 66.432C85.717 65.8813 85.577 65.228 85.577 64.472C85.577 63.7253 85.717 63.0813 85.997 62.54C86.277 61.9893 86.669 61.5693 87.173 61.28C87.677 60.9813 88.2744 60.832 88.965 60.832C89.6557 60.832 90.253 60.9813 90.757 61.28C91.2704 61.5693 91.6624 61.9893 91.933 62.54C92.213 63.0813 92.353 63.7253 92.353 64.472C92.353 65.228 92.213 65.8813 91.933 66.432C91.6624 66.9733 91.2704 67.3933 90.757 67.692C90.253 67.9813 89.6557 68.126 88.965 68.126ZM88.965 67.118C89.5997 67.118 90.1084 66.894 90.491 66.446C90.8737 65.998 91.065 65.34 91.065 64.472C91.065 63.604 90.8737 62.9507 90.491 62.512C90.1084 62.0733 89.5997 61.854 88.965 61.854C88.321 61.854 87.8077 62.0733 87.425 62.512C87.0517 62.9507 86.865 63.604 86.865 64.472C86.865 65.34 87.0517 65.998 87.425 66.446C87.8077 66.894 88.321 67.118 88.965 67.118ZM94.0738 71.024V62.624C94.0738 62.3533 94.0645 62.078 94.0458 61.798C94.0272 61.518 93.9992 61.238 93.9618 60.958H95.1938L95.3478 62.582H95.1938C95.3338 62.0407 95.6325 61.616 96.0898 61.308C96.5472 60.9907 97.0932 60.832 97.7278 60.832C98.3532 60.832 98.8992 60.9767 99.3658 61.266C99.8325 61.5553 100.192 61.9753 100.444 62.526C100.705 63.0673 100.836 63.716 100.836 64.472C100.836 65.228 100.705 65.8813 100.444 66.432C100.192 66.9827 99.8325 67.4027 99.3658 67.692C98.8992 67.9813 98.3532 68.126 97.7278 68.126C97.1025 68.126 96.5612 67.972 96.1038 67.664C95.6558 67.3467 95.3525 66.922 95.1938 66.39H95.3478V71.024H94.0738ZM97.4338 67.118C98.0778 67.118 98.5912 66.894 98.9738 66.446C99.3565 65.998 99.5478 65.34 99.5478 64.472C99.5478 63.604 99.3565 62.9507 98.9738 62.512C98.5912 62.0733 98.0778 61.854 97.4338 61.854C96.7898 61.854 96.2765 62.0733 95.8938 62.512C95.5205 62.9507 95.3338 63.604 95.3338 64.472C95.3338 65.34 95.5205 65.998 95.8938 66.446C96.2765 66.894 96.7898 67.118 97.4338 67.118ZM102.519 68V60.958H103.779V63.87H107.503V60.958H108.763V68H107.503V64.878H103.779V68H102.519ZM113.811 68.126C113.12 68.126 112.523 67.9813 112.019 67.692C111.515 67.3933 111.123 66.9733 110.843 66.432C110.563 65.8813 110.423 65.228 110.423 64.472C110.423 63.7253 110.563 63.0813 110.843 62.54C111.123 61.9893 111.515 61.5693 112.019 61.28C112.523 60.9813 113.12 60.832 113.811 60.832C114.501 60.832 115.099 60.9813 115.603 61.28C116.116 61.5693 116.508 61.9893 116.779 62.54C117.059 63.0813 117.199 63.7253 117.199 64.472C117.199 65.228 117.059 65.8813 116.779 66.432C116.508 66.9733 116.116 67.3933 115.603 67.692C115.099 67.9813 114.501 68.126 113.811 68.126ZM113.811 67.118C114.445 67.118 114.954 66.894 115.337 66.446C115.719 65.998 115.911 65.34 115.911 64.472C115.911 63.604 115.719 62.9507 115.337 62.512C114.954 62.0733 114.445 61.854 113.811 61.854C113.167 61.854 112.653 62.0733 112.271 62.512C111.897 62.9507 111.711 63.604 111.711 64.472C111.711 65.34 111.897 65.998 112.271 66.446C112.653 66.894 113.167 67.118 113.811 67.118ZM118.877 68V60.958H123.875V61.98H120.151V68H118.877ZM128.05 68.126C127.36 68.126 126.762 67.9813 126.258 67.692C125.754 67.3933 125.362 66.9733 125.082 66.432C124.802 65.8813 124.662 65.228 124.662 64.472C124.662 63.7253 124.802 63.0813 125.082 62.54C125.362 61.9893 125.754 61.5693 126.258 61.28C126.762 60.9813 127.36 60.832 128.05 60.832C128.741 60.832 129.338 60.9813 129.842 61.28C130.356 61.5693 130.748 61.9893 131.018 62.54C131.298 63.0813 131.438 63.7253 131.438 64.472C131.438 65.228 131.298 65.8813 131.018 66.432C130.748 66.9733 130.356 67.3933 129.842 67.692C129.338 67.9813 128.741 68.126 128.05 68.126ZM128.05 67.118C128.685 67.118 129.194 66.894 129.576 66.446C129.959 65.998 130.15 65.34 130.15 64.472C130.15 63.604 129.959 62.9507 129.576 62.512C129.194 62.0733 128.685 61.854 128.05 61.854C127.406 61.854 126.893 62.0733 126.51 62.512C126.137 62.9507 125.95 63.604 125.95 64.472C125.95 65.34 126.137 65.998 126.51 66.446C126.893 66.894 127.406 67.118 128.05 67.118ZM139.062 68.126C138.446 68.126 137.872 68.0467 137.34 67.888C136.808 67.7293 136.37 67.5053 136.024 67.216L136.444 66.334C136.79 66.614 137.182 66.824 137.62 66.964C138.059 67.104 138.535 67.174 139.048 67.174C139.72 67.174 140.206 67.076 140.504 66.88C140.812 66.6747 140.966 66.3807 140.966 65.998C140.966 65.634 140.84 65.3587 140.588 65.172C140.336 64.9853 139.968 64.892 139.482 64.892H137.774V63.968H139.328C139.767 63.968 140.108 63.8747 140.35 63.688C140.602 63.492 140.728 63.226 140.728 62.89C140.728 62.5447 140.588 62.274 140.308 62.078C140.028 61.8727 139.599 61.77 139.02 61.77C138.535 61.77 138.092 61.8353 137.69 61.966C137.289 62.0873 136.906 62.274 136.542 62.526L136.136 61.7C136.519 61.4013 136.967 61.182 137.48 61.042C137.994 60.902 138.554 60.832 139.16 60.832C140.047 60.832 140.724 61.0047 141.19 61.35C141.666 61.686 141.904 62.1667 141.904 62.792C141.904 63.2307 141.755 63.6087 141.456 63.926C141.158 64.234 140.761 64.4207 140.266 64.486V64.304C140.826 64.332 141.279 64.5047 141.624 64.822C141.97 65.13 142.142 65.5407 142.142 66.054C142.142 66.6793 141.881 67.1833 141.358 67.566C140.836 67.9393 140.07 68.126 139.062 68.126ZM146.954 68.126C145.834 68.126 144.947 67.804 144.294 67.16C143.65 66.516 143.328 65.6293 143.328 64.5C143.328 63.7533 143.468 63.1093 143.748 62.568C144.037 62.0173 144.434 61.5927 144.938 61.294C145.442 60.986 146.03 60.832 146.702 60.832C147.346 60.832 147.892 60.972 148.34 61.252C148.788 61.5227 149.129 61.91 149.362 62.414C149.595 62.918 149.712 63.5153 149.712 64.206V64.626H144.322V63.87H148.844L148.606 64.052C148.606 63.324 148.443 62.7593 148.116 62.358C147.799 61.9567 147.327 61.756 146.702 61.756C146.021 61.756 145.493 61.994 145.12 62.47C144.747 62.9367 144.56 63.576 144.56 64.388V64.514C144.56 65.3727 144.77 66.0213 145.19 66.46C145.619 66.8987 146.212 67.118 146.968 67.118C147.388 67.118 147.78 67.0573 148.144 66.936C148.508 66.8147 148.858 66.614 149.194 66.334L149.614 67.216C149.297 67.5053 148.9 67.7293 148.424 67.888C147.957 68.0467 147.467 68.126 146.954 68.126ZM151.387 71.024V62.624C151.387 62.3533 151.378 62.078 151.359 61.798C151.341 61.518 151.313 61.238 151.275 60.958H152.507L152.661 62.582H152.507C152.647 62.0407 152.946 61.616 153.403 61.308C153.861 60.9907 154.407 60.832 155.041 60.832C155.667 60.832 156.213 60.9767 156.679 61.266C157.146 61.5553 157.505 61.9753 157.757 62.526C158.019 63.0673 158.149 63.716 158.149 64.472C158.149 65.228 158.019 65.8813 157.757 66.432C157.505 66.9827 157.146 67.4027 156.679 67.692C156.213 67.9813 155.667 68.126 155.041 68.126C154.416 68.126 153.875 67.972 153.417 67.664C152.969 67.3467 152.666 66.922 152.507 66.39H152.661V71.024H151.387ZM154.747 67.118C155.391 67.118 155.905 66.894 156.287 66.446C156.67 65.998 156.861 65.34 156.861 64.472C156.861 63.604 156.67 62.9507 156.287 62.512C155.905 62.0733 155.391 61.854 154.747 61.854C154.103 61.854 153.59 62.0733 153.207 62.512C152.834 62.9507 152.647 63.604 152.647 64.472C152.647 65.34 152.834 65.998 153.207 66.446C153.59 66.894 154.103 67.118 154.747 67.118ZM159.832 68V60.958H161.092V63.87H164.816V60.958H166.076V68H164.816V64.878H161.092V68H159.832ZM170.844 68.126C170.228 68.126 169.687 67.9813 169.22 67.692C168.754 67.4027 168.39 66.9827 168.128 66.432C167.867 65.8813 167.736 65.228 167.736 64.472C167.736 63.716 167.867 63.0673 168.128 62.526C168.39 61.9753 168.754 61.5553 169.22 61.266C169.687 60.9767 170.228 60.832 170.844 60.832C171.47 60.832 172.011 60.9907 172.468 61.308C172.935 61.616 173.243 62.0407 173.392 62.582H173.224L173.378 60.958H174.61C174.582 61.238 174.554 61.518 174.526 61.798C174.508 62.078 174.498 62.3533 174.498 62.624V68H173.224V66.39H173.378C173.229 66.922 172.921 67.3467 172.454 67.664C171.997 67.972 171.46 68.126 170.844 68.126ZM171.138 67.118C171.773 67.118 172.282 66.894 172.664 66.446C173.047 65.998 173.238 65.34 173.238 64.472C173.238 63.604 173.047 62.9507 172.664 62.512C172.282 62.0733 171.773 61.854 171.138 61.854C170.504 61.854 169.99 62.0733 169.598 62.512C169.216 62.9507 169.024 63.604 169.024 64.472C169.024 65.34 169.216 65.998 169.598 66.446C169.981 66.894 170.494 67.118 171.138 67.118ZM177.007 69.666L176.433 69.218C176.695 68.9473 176.872 68.6907 176.965 68.448C177.059 68.2147 177.105 67.972 177.105 67.72L177.385 68H176.363V66.446H177.917V67.524C177.917 67.9253 177.852 68.294 177.721 68.63C177.591 68.9753 177.353 69.3207 177.007 69.666ZM24.092 84V76.958H25.254V82.796H24.876L29.244 76.958H30.308V84H29.146V78.148H29.538L25.156 84H24.092ZM34.7405 84.126C34.1245 84.126 33.5505 84.0467 33.0185 83.888C32.4865 83.7293 32.0479 83.5053 31.7025 83.216L32.1225 82.334C32.4679 82.614 32.8599 82.824 33.2985 82.964C33.7372 83.104 34.2132 83.174 34.7265 83.174C35.3985 83.174 35.8839 83.076 36.1825 82.88C36.4905 82.6747 36.6445 82.3807 36.6445 81.998C36.6445 81.634 36.5185 81.3587 36.2665 81.172C36.0145 80.9853 35.6459 80.892 35.1605 80.892H33.4525V79.968H35.0065C35.4452 79.968 35.7859 79.8747 36.0285 79.688C36.2805 79.492 36.4065 79.226 36.4065 78.89C36.4065 78.5447 36.2665 78.274 35.9865 78.078C35.7065 77.8727 35.2772 77.77 34.6985 77.77C34.2132 77.77 33.7699 77.8353 33.3685 77.966C32.9672 78.0873 32.5845 78.274 32.2205 78.526L31.8145 77.7C32.1972 77.4013 32.6452 77.182 33.1585 77.042C33.6719 76.902 34.2319 76.832 34.8385 76.832C35.7252 76.832 36.4019 77.0047 36.8685 77.35C37.3445 77.686 37.5825 78.1667 37.5825 78.792C37.5825 79.2307 37.4332 79.6087 37.1345 79.926C36.8359 80.234 36.4392 80.4207 35.9445 80.486V80.304C36.5045 80.332 36.9572 80.5047 37.3025 80.822C37.6479 81.13 37.8205 81.5407 37.8205 82.054C37.8205 82.6793 37.5592 83.1833 37.0365 83.566C36.5139 83.9393 35.7485 84.126 34.7405 84.126ZM42.9357 84V76.958H44.1957V79.87H45.4697L47.7377 76.958H49.1237L46.4917 80.388L46.1557 79.996C46.4263 80.024 46.6597 80.094 46.8557 80.206C47.0517 80.3087 47.2383 80.4627 47.4157 80.668C47.6023 80.8733 47.803 81.1487 48.0177 81.494L49.4737 84H48.1017L46.8277 81.83C46.6877 81.578 46.5477 81.382 46.4077 81.242C46.2677 81.102 46.109 81.004 45.9317 80.948C45.7637 80.892 45.549 80.864 45.2877 80.864H44.1957V84H42.9357ZM53.4346 84.126C52.7439 84.126 52.1466 83.9813 51.6426 83.692C51.1386 83.3933 50.7466 82.9733 50.4666 82.432C50.1866 81.8813 50.0466 81.228 50.0466 80.472C50.0466 79.7253 50.1866 79.0813 50.4666 78.54C50.7466 77.9893 51.1386 77.5693 51.6426 77.28C52.1466 76.9813 52.7439 76.832 53.4346 76.832C54.1252 76.832 54.7226 76.9813 55.2266 77.28C55.7399 77.5693 56.1319 77.9893 56.4026 78.54C56.6826 79.0813 56.8226 79.7253 56.8226 80.472C56.8226 81.228 56.6826 81.8813 56.4026 82.432C56.1319 82.9733 55.7399 83.3933 55.2266 83.692C54.7226 83.9813 54.1252 84.126 53.4346 84.126ZM53.4346 83.118C54.0692 83.118 54.5779 82.894 54.9606 82.446C55.3432 81.998 55.5346 81.34 55.5346 80.472C55.5346 79.604 55.3432 78.9507 54.9606 78.512C54.5779 78.0733 54.0692 77.854 53.4346 77.854C52.7906 77.854 52.2772 78.0733 51.8946 78.512C51.5212 78.9507 51.3346 79.604 51.3346 80.472C51.3346 81.34 51.5212 81.998 51.8946 82.446C52.2772 82.894 52.7906 83.118 53.4346 83.118ZM60.0134 84V77.98H57.4794V76.958H63.8074V77.98H61.2734V84H60.0134ZM67.7972 84.126C67.1065 84.126 66.5092 83.9813 66.0052 83.692C65.5012 83.3933 65.1092 82.9733 64.8292 82.432C64.5492 81.8813 64.4092 81.228 64.4092 80.472C64.4092 79.7253 64.5492 79.0813 64.8292 78.54C65.1092 77.9893 65.5012 77.5693 66.0052 77.28C66.5092 76.9813 67.1065 76.832 67.7972 76.832C68.4878 76.832 69.0852 76.9813 69.5892 77.28C70.1025 77.5693 70.4945 77.9893 70.7652 78.54C71.0452 79.0813 71.1852 79.7253 71.1852 80.472C71.1852 81.228 71.0452 81.8813 70.7652 82.432C70.4945 82.9733 70.1025 83.3933 69.5892 83.692C69.0852 83.9813 68.4878 84.126 67.7972 84.126ZM67.7972 83.118C68.4318 83.118 68.9405 82.894 69.3232 82.446C69.7058 81.998 69.8972 81.34 69.8972 80.472C69.8972 79.604 69.7058 78.9507 69.3232 78.512C68.9405 78.0733 68.4318 77.854 67.7972 77.854C67.1532 77.854 66.6398 78.0733 66.2572 78.512C65.8838 78.9507 65.6972 79.604 65.6972 80.472C65.6972 81.34 65.8838 81.998 66.2572 82.446C66.6398 82.894 67.1532 83.118 67.7972 83.118ZM72.906 87.024V78.624C72.906 78.3533 72.8966 78.078 72.878 77.798C72.8593 77.518 72.8313 77.238 72.794 76.958H74.026L74.18 78.582H74.026C74.166 78.0407 74.4646 77.616 74.922 77.308C75.3793 76.9907 75.9253 76.832 76.56 76.832C77.1853 76.832 77.7313 76.9767 78.198 77.266C78.6646 77.5553 79.024 77.9753 79.276 78.526C79.5373 79.0673 79.668 79.716 79.668 80.472C79.668 81.228 79.5373 81.8813 79.276 82.432C79.024 82.9827 78.6646 83.4027 78.198 83.692C77.7313 83.9813 77.1853 84.126 76.56 84.126C75.9346 84.126 75.3933 83.972 74.936 83.664C74.488 83.3467 74.1846 82.922 74.026 82.39H74.18V87.024H72.906ZM76.266 83.118C76.91 83.118 77.4233 82.894 77.806 82.446C78.1886 81.998 78.38 81.34 78.38 80.472C78.38 79.604 78.1886 78.9507 77.806 78.512C77.4233 78.0733 76.91 77.854 76.266 77.854C75.622 77.854 75.1086 78.0733 74.726 78.512C74.3526 78.9507 74.166 79.604 74.166 80.472C74.166 81.34 74.3526 81.998 74.726 82.446C75.1086 82.894 75.622 83.118 76.266 83.118ZM84.3609 84.126C83.6702 84.126 83.0729 83.9813 82.5689 83.692C82.0649 83.3933 81.6729 82.9733 81.3929 82.432C81.1129 81.8813 80.9729 81.228 80.9729 80.472C80.9729 79.7253 81.1129 79.0813 81.3929 78.54C81.6729 77.9893 82.0649 77.5693 82.5689 77.28C83.0729 76.9813 83.6702 76.832 84.3609 76.832C85.0516 76.832 85.6489 76.9813 86.1529 77.28C86.6662 77.5693 87.0582 77.9893 87.3289 78.54C87.6089 79.0813 87.7489 79.7253 87.7489 80.472C87.7489 81.228 87.6089 81.8813 87.3289 82.432C87.0582 82.9733 86.6662 83.3933 86.1529 83.692C85.6489 83.9813 85.0516 84.126 84.3609 84.126ZM84.3609 83.118C84.9956 83.118 85.5042 82.894 85.8869 82.446C86.2696 81.998 86.4609 81.34 86.4609 80.472C86.4609 79.604 86.2696 78.9507 85.8869 78.512C85.5042 78.0733 84.9956 77.854 84.3609 77.854C83.7169 77.854 83.2036 78.0733 82.8209 78.512C82.4476 78.9507 82.2609 79.604 82.2609 80.472C82.2609 81.34 82.4476 81.998 82.8209 82.446C83.2036 82.894 83.7169 83.118 84.3609 83.118ZM89.4277 84V76.958H94.4257V77.98H90.7017V84H89.4277ZM98.6004 84.126C97.9098 84.126 97.3124 83.9813 96.8084 83.692C96.3044 83.3933 95.9124 82.9733 95.6324 82.432C95.3524 81.8813 95.2124 81.228 95.2124 80.472C95.2124 79.7253 95.3524 79.0813 95.6324 78.54C95.9124 77.9893 96.3044 77.5693 96.8084 77.28C97.3124 76.9813 97.9098 76.832 98.6004 76.832C99.2911 76.832 99.8884 76.9813 100.392 77.28C100.906 77.5693 101.298 77.9893 101.568 78.54C101.848 79.0813 101.988 79.7253 101.988 80.472C101.988 81.228 101.848 81.8813 101.568 82.432C101.298 82.9733 100.906 83.3933 100.392 83.692C99.8884 83.9813 99.2911 84.126 98.6004 84.126ZM98.6004 83.118C99.2351 83.118 99.7438 82.894 100.126 82.446C100.509 81.998 100.7 81.34 100.7 80.472C100.7 79.604 100.509 78.9507 100.126 78.512C99.7438 78.0733 99.2351 77.854 98.6004 77.854C97.9564 77.854 97.4431 78.0733 97.0604 78.512C96.6871 78.9507 96.5004 79.604 96.5004 80.472C96.5004 81.34 96.6871 81.998 97.0604 82.446C97.4431 82.894 97.9564 83.118 98.6004 83.118ZM107.219 84V76.958H108.283L110.873 81.564L113.477 76.958H114.527V84H113.407V78.386H113.715L111.195 82.866H110.565L108.045 78.372H108.339V84H107.219ZM116.567 84V76.958H117.827V79.45H119.899C120.814 79.45 121.5 79.646 121.957 80.038C122.424 80.4207 122.657 80.976 122.657 81.704C122.657 82.1707 122.55 82.5767 122.335 82.922C122.12 83.2673 121.808 83.5333 121.397 83.72C120.986 83.9067 120.487 84 119.899 84H116.567ZM117.827 83.118H119.759C120.319 83.118 120.739 83.006 121.019 82.782C121.308 82.5487 121.453 82.194 121.453 81.718C121.453 81.242 121.308 80.892 121.019 80.668C120.739 80.444 120.319 80.332 119.759 80.332H117.827V83.118ZM123.679 84V76.958H124.939V84H123.679ZM129.805 85.82V83.006H130.575C130.892 82.53 131.121 81.97 131.261 81.326C131.41 80.682 131.485 79.9167 131.485 79.03V76.958H136.539V83.006H137.659V85.82H136.567V84H130.911V85.82H129.805ZM131.779 83.02H135.349V77.938H132.605V79.254C132.605 79.9633 132.535 80.654 132.395 81.326C132.255 81.9887 132.05 82.5533 131.779 83.02ZM142.241 84.126C141.121 84.126 140.234 83.804 139.581 83.16C138.937 82.516 138.615 81.6293 138.615 80.5C138.615 79.7533 138.755 79.1093 139.035 78.568C139.324 78.0173 139.721 77.5927 140.225 77.294C140.729 76.986 141.317 76.832 141.989 76.832C142.633 76.832 143.179 76.972 143.627 77.252C144.075 77.5227 144.415 77.91 144.649 78.414C144.882 78.918 144.999 79.5153 144.999 80.206V80.626H139.609V79.87H144.131L143.893 80.052C143.893 79.324 143.729 78.7593 143.403 78.358C143.085 77.9567 142.614 77.756 141.989 77.756C141.307 77.756 140.78 77.994 140.407 78.47C140.033 78.9367 139.847 79.576 139.847 80.388V80.514C139.847 81.3727 140.057 82.0213 140.477 82.46C140.906 82.8987 141.499 83.118 142.255 83.118C142.675 83.118 143.067 83.0573 143.431 82.936C143.795 82.8147 144.145 82.614 144.481 82.334L144.901 83.216C144.583 83.5053 144.187 83.7293 143.711 83.888C143.244 84.0467 142.754 84.126 142.241 84.126ZM146.296 84.168L145.848 83.174C146.175 83.0247 146.445 82.8473 146.66 82.642C146.884 82.4273 147.057 82.1567 147.178 81.83C147.309 81.5033 147.402 81.0973 147.458 80.612C147.514 80.1267 147.542 79.5387 147.542 78.848V76.958H152.736V84H151.476V77.952H148.718V78.876C148.718 79.9587 148.634 80.8547 148.466 81.564C148.307 82.264 148.051 82.8193 147.696 83.23C147.351 83.6407 146.884 83.9533 146.296 84.168ZM157.507 84.126C156.891 84.126 156.35 83.9813 155.883 83.692C155.416 83.4027 155.052 82.9827 154.791 82.432C154.53 81.8813 154.399 81.228 154.399 80.472C154.399 79.716 154.53 79.0673 154.791 78.526C155.052 77.9753 155.416 77.5553 155.883 77.266C156.35 76.9767 156.891 76.832 157.507 76.832C158.132 76.832 158.674 76.9907 159.131 77.308C159.598 77.616 159.906 78.0407 160.055 78.582H159.887L160.041 76.958H161.273C161.245 77.238 161.217 77.518 161.189 77.798C161.17 78.078 161.161 78.3533 161.161 78.624V84H159.887V82.39H160.041C159.892 82.922 159.584 83.3467 159.117 83.664C158.66 83.972 158.123 84.126 157.507 84.126ZM157.801 83.118C158.436 83.118 158.944 82.894 159.327 82.446C159.71 81.998 159.901 81.34 159.901 80.472C159.901 79.604 159.71 78.9507 159.327 78.512C158.944 78.0733 158.436 77.854 157.801 77.854C157.166 77.854 156.653 78.0733 156.261 78.512C155.878 78.9507 155.687 79.604 155.687 80.472C155.687 81.34 155.878 81.998 156.261 82.446C156.644 82.894 157.157 83.118 157.801 83.118ZM166.512 84.126C165.392 84.126 164.505 83.804 163.852 83.16C163.208 82.516 162.886 81.6293 162.886 80.5C162.886 79.7533 163.026 79.1093 163.306 78.568C163.595 78.0173 163.992 77.5927 164.496 77.294C165 76.986 165.588 76.832 166.26 76.832C166.904 76.832 167.45 76.972 167.898 77.252C168.346 77.5227 168.687 77.91 168.92 78.414C169.153 78.918 169.27 79.5153 169.27 80.206V80.626H163.88V79.87H168.402L168.164 80.052C168.164 79.324 168.001 78.7593 167.674 78.358C167.357 77.9567 166.885 77.756 166.26 77.756C165.579 77.756 165.051 77.994 164.678 78.47C164.305 78.9367 164.118 79.576 164.118 80.388V80.514C164.118 81.3727 164.328 82.0213 164.748 82.46C165.177 82.8987 165.77 83.118 166.526 83.118C166.946 83.118 167.338 83.0573 167.702 82.936C168.066 82.8147 168.416 82.614 168.752 82.334L169.172 83.216C168.855 83.5053 168.458 83.7293 167.982 83.888C167.515 84.0467 167.025 84.126 166.512 84.126ZM170.903 84V76.958H171.967L174.557 81.564L177.161 76.958H178.211V84H177.091V78.386H177.399L174.879 82.866H174.249L171.729 78.372H172.023V84H170.903ZM183.803 84V76.958H184.867L187.457 81.564L190.061 76.958H191.111V84H189.991V78.386H190.299L187.779 82.866H187.149L184.629 78.372H184.923V84H183.803ZM192.955 87.178L192.661 86.142C193.1 86.0393 193.464 85.918 193.753 85.778C194.043 85.6473 194.285 85.4747 194.481 85.26C194.677 85.0453 194.85 84.7747 194.999 84.448L195.349 83.608L195.321 84.14L192.255 76.958H193.627L196.077 82.992H195.713L198.163 76.958H199.479L196.245 84.546C196.049 85.0033 195.835 85.386 195.601 85.694C195.377 86.002 195.13 86.254 194.859 86.45C194.598 86.646 194.309 86.8 193.991 86.912C193.674 87.024 193.329 87.1127 192.955 87.178ZM200.627 84V76.958H201.887V79.87H203.161L205.429 76.958H206.815L204.183 80.388L203.847 79.996C204.117 80.024 204.351 80.094 204.547 80.206C204.743 80.3087 204.929 80.4627 205.107 80.668C205.293 80.8733 205.494 81.1487 205.709 81.494L207.165 84H205.793L204.519 81.83C204.379 81.578 204.239 81.382 204.099 81.242C203.959 81.102 203.8 81.004 203.623 80.948C203.455 80.892 203.24 80.864 202.979 80.864H201.887V84H200.627ZM207.919 87.178L207.625 86.142C208.064 86.0393 208.428 85.918 208.717 85.778C209.007 85.6473 209.249 85.4747 209.445 85.26C209.641 85.0453 209.814 84.7747 209.963 84.448L210.313 83.608L210.285 84.14L207.219 76.958H208.591L211.041 82.992H210.677L213.127 76.958H214.443L211.209 84.546C211.013 85.0033 210.799 85.386 210.565 85.694C210.341 86.002 210.094 86.254 209.823 86.45C209.562 86.646 209.273 86.8 208.955 86.912C208.638 87.024 208.293 87.1127 207.919 87.178Z" fill="#664B42"/>
</svg>
