<svg width="24" height="22" viewBox="0 0 24 22" fill="none" xmlns="http://www.w3.org/2000/svg">
<path fill-rule="evenodd" clip-rule="evenodd" d="M8.5 1H23.5V17.5C23.5 19.9853 21.4853 22 19 22H9C8.72386 22 8.5 21.7761 8.5 21.5C8.5 21.2239 8.72386 21 9 21H19C20.933 21 22.5 19.433 22.5 17.5V2H9.5V15C9.5 15.2761 9.27614 15.5 9 15.5C8.72386 15.5 8.5 15.2761 8.5 15V1Z" fill="#664B42"/>
<path fill-rule="evenodd" clip-rule="evenodd" d="M5 14.5H19.5V15.5H6V18.25C6 19.7688 7.23122 21 8.75 21H19C19.2761 21 19.5 21.2239 19.5 21.5C19.5 21.7761 19.2761 22 19 22H8.75C6.67893 22 5 20.3211 5 18.25V14.5Z" fill="#664B42"/>
<path fill-rule="evenodd" clip-rule="evenodd" d="M21.5 11.5C21.7761 11.5 22 11.7239 22 12V17.5C22 18.4665 21.2165 19.25 20.25 19.25C19.2835 19.25 18.5 18.4665 18.5 17.5V15H19.5V17.5C19.5 17.9142 19.8358 18.25 20.25 18.25C20.6642 18.25 21 17.9142 21 17.5V12C21 11.7239 21.2239 11.5 21.5 11.5Z" fill="#664B42"/>
<path d="M0.282261 4.78016C0.360542 5.67775 0.794769 6.48163 1.49349 7.03501L5.90971 10.7454C6.82985 11.5184 7.99591 11.8869 9.19386 11.7824L9.92157 11.7189L8.82366 10.7971C7.99305 10.8033 7.19546 10.5193 6.55264 9.97964L2.12487 6.26043C1.63265 5.87072 1.33261 5.31392 1.27848 4.69327C1.1707 3.45746 2.08868 2.36407 3.32449 2.2563C3.94513 2.20217 4.54476 2.4016 5.02516 2.82848L6.12616 3.75194L6.86628 5.4607L6.76396 4.28741L8.83277 6.02342L9.57404 7.73404L9.4718 6.56173C10.1705 7.16111 10.6004 7.99313 10.6806 8.91188L10.7695 9.93145L5.73686 5.70623L5.09393 6.47202L12.2927 12.5159L12.9357 11.7501L11.8526 10.8408L11.6768 8.825C11.5723 7.62755 11.0081 6.54233 10.087 5.76993L5.67875 2.07254C5.00185 1.47008 4.1352 1.1818 3.2376 1.26008C1.45238 1.41577 0.126568 2.99493 0.282261 4.78016Z" fill="#FD9F32"/>
</svg>
